<svg width="52" height="38" viewBox="0 0 52 38" fill="none" xmlns="http://www.w3.org/2000/svg">
<path d="M10.8672 0H4.82422C1.33047 0.157106 0.152343 2.55297 0 3.73127V33.7778C0 36.5271 2.64062 37.7054 3.96094 37.9509H48.75C51.1469 37.7545 51.8815 35.8071 51.9492 34.8579V3.68217C51.5836 0.932817 49.1224 0.081826 47.9375 0H22.75C25.1062 0.6677 26.1016 2.07838 26.3047 2.70026C32.3984 2.66753 44.9922 2.65116 46.6172 2.84755C48.2422 3.04393 49.1224 4.56589 49.3594 5.30233V35.2997C48.8516 37.4599 47.4805 37.7545 47.0234 37.7545C46.4953 37.5581 46.3294 36.9854 46.3125 36.7235V10.1628C46.0281 7.25633 43.5195 6.33333 42.3008 6.23514H18.0273C15.3359 5.646 14.6758 4.27132 13.8633 2.50388C13.2133 1.08992 11.5951 0.245478 10.8672 0Z" fill="url(#paint0_linear_21_210)"/>
<path d="M52 7.51163L48.8008 3.78036C48.8516 13.2231 49.3086 33.5225 49.3086 35.2506C47.2266 37.4599 47.2266 37.6072 47.125 38H48.9531C51.1875 37.7251 51.9154 35.6925 52 34.7106V7.51163Z" fill="black" fill-opacity="0.16"/>
<path d="M46.2109 2.74935H26.4062C26.65 4.6739 28.8438 5.80965 29.9102 6.13695H42.5039C45.1445 6.45116 46.1432 8.72265 46.3125 9.81912V36.8708C46.2956 36.9526 46.4648 37.4109 47.1758 37.7054C48.4453 37.509 49.1562 36.1835 49.4102 35.2997V5.74419C49.4102 3.34832 47.2773 2.74935 46.2109 2.74935Z" fill="white"/>
<path d="M15.8816 0C14.4798 0.247062 13.5796 1.20099 13.3047 1.64708C13.8201 2.16179 14.0262 3.19121 14.8509 4.58094C15.5106 5.73389 17.0499 6.26233 17.7371 6.38243H30.5703C30.4672 6.34811 30.1168 6.2589 29.5395 6.17654C27.2718 5.19859 27.2718 4.78682 26.241 2.52209C25.4164 0.710302 23.4923 0.0857853 22.6333 0H15.8816Z" fill="url(#paint1_linear_21_210)"/>
<path d="M49.4102 13.9922L46.2617 9.81912V37.0672C46.4479 37.2472 46.9219 37.6662 47.3281 37.9018C48.9531 37.2341 49.3932 35.6598 49.4102 34.9561V13.9922Z" fill="url(#paint2_linear_21_210)"/>
<path d="M29.25 6.03876C27.5051 5.76006 26.6948 3.63061 26.3047 2.60207L30.7227 6.38243C30.4389 6.31607 29.4628 6.03876 29.25 6.03876Z" fill="#D9D9D9"/>
<defs>
<linearGradient id="paint0_linear_21_210" x1="26" y1="0" x2="26" y2="38" gradientUnits="userSpaceOnUse">
<stop stop-color="#FFCD0E"/>
<stop offset="0.59375" stop-color="#F3B432"/>
<stop offset="1" stop-color="#FF9516"/>
</linearGradient>
<linearGradient id="paint1_linear_21_210" x1="17.7412" y1="-3.90304e-07" x2="28.857" y2="28.5515" gradientUnits="userSpaceOnUse">
<stop stop-color="#FF416E"/>
<stop offset="1" stop-color="#ED0E48"/>
</linearGradient>
<linearGradient id="paint2_linear_21_210" x1="26" y1="0" x2="26" y2="38" gradientUnits="userSpaceOnUse">
<stop stop-color="#707070" stop-opacity="0.01"/>
<stop offset="1" stop-color="#BDB8B8" stop-opacity="0.83"/>
</linearGradient>
</defs>
</svg>
